<svg width="20" height="20" viewBox="0 0 20 20" fill="none" xmlns="http://www.w3.org/2000/svg">
<path d="M7.95833 14.75C7.83333 14.75 7.70833 14.7256 7.58333 14.6767C7.45833 14.6284 7.34722 14.5556 7.25 14.4584L3.64583 10.8542C3.46528 10.6737 3.37833 10.4617 3.385 10.2184C3.39222 9.9756 3.47917 9.76393 3.64583 9.58337C3.82639 9.40282 4.03833 9.31254 4.28167 9.31254C4.52444 9.31254 4.72917 9.40282 4.89583 9.58337L7.95833 12.6459L15.125 5.47921C15.2917 5.29865 15.5 5.20837 15.75 5.20837C16 5.20837 16.2083 5.29865 16.375 5.47921C16.5556 5.65976 16.6458 5.87143 16.6458 6.11421C16.6458 6.35754 16.5556 6.56949 16.375 6.75004L8.66667 14.4584C8.56944 14.5556 8.45833 14.6284 8.33333 14.6767C8.20833 14.7256 8.08333 14.75 7.95833 14.75Z" fill="white"/>
</svg>
