<svg width="24" height="24" viewBox="0 0 24 24" fill="none" xmlns="http://www.w3.org/2000/svg">
<path d="M9.85001 17.9C9.15001 17.9 8.56268 17.6667 8.08801 17.2C7.61268 16.7334 7.37501 16.15 7.37501 15.45V3.87502C7.37501 3.15836 7.61268 2.56669 8.08801 2.10002C8.56268 1.63336 9.15001 1.40002 9.85001 1.40002H18.35C19.05 1.40002 19.6377 1.63736 20.113 2.11202C20.5877 2.58736 20.825 3.17502 20.825 3.87502V15.45C20.825 16.15 20.5877 16.7334 20.113 17.2C19.6377 17.6667 19.05 17.9 18.35 17.9H9.85001ZM5.02501 22.7C4.32501 22.7 3.74168 22.4667 3.27501 22C2.80835 21.5334 2.57501 20.95 2.57501 20.25V7.37502C2.57501 7.09169 2.67935 6.84169 2.88801 6.62502C3.09601 6.40836 3.35001 6.30002 3.65001 6.30002C3.93335 6.30002 4.18335 6.40836 4.40001 6.62502C4.61668 6.84169 4.72501 7.09169 4.72501 7.37502V20.25C4.72501 20.3334 4.75401 20.404 4.81201 20.462C4.87068 20.5207 4.94168 20.55 5.02501 20.55H14.85C15.1333 20.55 15.3833 20.6584 15.6 20.875C15.8167 21.0917 15.925 21.3417 15.925 21.625C15.925 21.925 15.8167 22.179 15.6 22.387C15.3833 22.5957 15.1333 22.7 14.85 22.7H5.02501Z" fill="#7A7A7A"/>
</svg>
