<svg width="24" height="24" viewBox="0 0 24 24" fill="none" xmlns="http://www.w3.org/2000/svg">
<path d="M12.025 20.825C9.59168 20.825 7.51235 19.9627 5.78701 18.238C4.06235 16.5127 3.20001 14.4333 3.20001 12C3.20001 10.3167 3.61668 8.76668 4.45001 7.35001C5.28335 5.93334 6.48335 4.81668 8.05001 4.00001C8.95001 3.61668 9.67935 3.62501 10.238 4.02501C10.796 4.42501 10.9917 5.18334 10.825 6.30001C10.8583 6.43334 10.8877 6.54568 10.913 6.63701C10.9377 6.72901 10.95 6.82501 10.95 6.92501C10.95 8.60834 11.5627 10.054 12.788 11.262C14.0127 12.4707 15.475 13.075 17.175 13.075C17.3417 13.075 17.475 13.0833 17.575 13.1C17.675 13.1167 17.775 13.1583 17.875 13.225C19.075 13.1083 19.8377 13.35 20.163 13.95C20.4877 14.55 20.45 15.2667 20.05 16.1C19.2333 17.4833 18.1083 18.6167 16.675 19.5C15.2417 20.3833 13.6917 20.825 12.025 20.825Z" fill="#FFDD85"/>
</svg>
