<svg width="10" height="10" viewBox="0 0 10 10" fill="none" xmlns="http://www.w3.org/2000/svg">
<path d="M5 1.19793C5.25 1.19793 5.46181 1.2864 5.63542 1.46334C5.80903 1.64056 5.89583 1.8507 5.89583 2.09376C5.89583 2.34376 5.80722 2.55556 5.63 2.72918C5.45306 2.90279 5.24306 2.98959 5 2.98959C4.75 2.98959 4.53819 2.90112 4.36458 2.72418C4.19097 2.54695 4.10417 2.33681 4.10417 2.09376C4.10417 1.84376 4.19278 1.63195 4.37 1.45834C4.54694 1.28473 4.75694 1.19793 5 1.19793ZM5 3.84376C5.25694 3.84376 5.47222 3.93056 5.64583 4.10418C5.81944 4.27779 5.90625 4.49306 5.90625 4.75001L5.90625 8.08334C5.90625 8.34029 5.81764 8.55557 5.64042 8.72918C5.46347 8.90279 5.25 8.98959 5 8.98959C4.74305 8.98959 4.52778 8.90279 4.35417 8.72918C4.18055 8.55557 4.09375 8.34029 4.09375 8.08334V4.75001C4.09375 4.49306 4.18222 4.27779 4.35917 4.10418C4.53639 3.93056 4.75 3.84376 5 3.84376Z" fill="white"/>
</svg>
