<svg width="24" height="24" viewBox="0 0 24 24" fill="none" xmlns="http://www.w3.org/2000/svg">
<path d="M12 16.825C10.65 16.825 9.50832 16.3583 8.57499 15.425C7.64165 14.4917 7.17499 13.35 7.17499 12C7.17499 10.65 7.64165 9.50832 8.57499 8.57499C9.50832 7.64165 10.65 7.17499 12 7.17499C13.35 7.17499 14.4917 7.64165 15.425 8.57499C16.3583 9.50832 16.825 10.65 16.825 12C16.825 13.35 16.3583 14.4917 15.425 15.425C14.4917 16.3583 13.35 16.825 12 16.825ZM1.99999 13.075C1.69999 13.075 1.44599 12.9707 1.23799 12.762C1.02932 12.554 0.924988 12.3 0.924988 12C0.924988 11.7 1.02932 11.4457 1.23799 11.237C1.44599 11.029 1.69999 10.925 1.99999 10.925H4.24999C4.54999 10.925 4.80432 11.029 5.01299 11.237C5.22099 11.4457 5.32499 11.7 5.32499 12C5.32499 12.3 5.22099 12.554 5.01299 12.762C4.80432 12.9707 4.54999 13.075 4.24999 13.075H1.99999ZM19.75 13.075C19.45 13.075 19.196 12.9707 18.988 12.762C18.7793 12.554 18.675 12.3 18.675 12C18.675 11.7 18.7793 11.4457 18.988 11.237C19.196 11.029 19.45 10.925 19.75 10.925H22C22.3 10.925 22.5543 11.029 22.763 11.237C22.971 11.4457 23.075 11.7 23.075 12C23.075 12.3 22.971 12.554 22.763 12.762C22.5543 12.9707 22.3 13.075 22 13.075H19.75ZM12 5.32499C11.7 5.32499 11.446 5.22065 11.238 5.01199C11.0293 4.80399 10.925 4.54999 10.925 4.24999V1.99999C10.925 1.69999 11.0293 1.44565 11.238 1.23699C11.446 1.02899 11.7 0.924988 12 0.924988C12.3 0.924988 12.5543 1.02899 12.763 1.23699C12.971 1.44565 13.075 1.69999 13.075 1.99999V4.24999C13.075 4.54999 12.971 4.80399 12.763 5.01199C12.5543 5.22065 12.3 5.32499 12 5.32499ZM12 23.075C11.7 23.075 11.446 22.9707 11.238 22.762C11.0293 22.554 10.925 22.3 10.925 22V19.75C10.925 19.45 11.0293 19.196 11.238 18.988C11.446 18.7793 11.7 18.675 12 18.675C12.3 18.675 12.5543 18.7793 12.763 18.988C12.971 19.196 13.075 19.45 13.075 19.75V22C13.075 22.3 12.971 22.554 12.763 22.762C12.5543 22.9707 12.3 23.075 12 23.075ZM5.77499 7.27499L4.52499 6.04999C4.30832 5.81665 4.20432 5.55832 4.21299 5.27499C4.22099 4.99165 4.32499 4.74165 4.52499 4.52499C4.74165 4.30832 4.99165 4.19999 5.27499 4.19999C5.55832 4.19999 5.81665 4.30832 6.04999 4.52499L7.27499 5.77499C7.49165 5.99165 7.59999 6.24165 7.59999 6.52499C7.59999 6.80832 7.49165 7.05832 7.27499 7.27499C7.09165 7.49165 6.85399 7.59565 6.56199 7.58699C6.27065 7.57899 6.00832 7.47499 5.77499 7.27499ZM17.95 19.475L16.725 18.225C16.5083 18.0083 16.4043 17.7623 16.413 17.487C16.421 17.2123 16.525 16.9583 16.725 16.725C16.925 16.5083 17.1667 16.4043 17.45 16.413C17.7333 16.421 17.9917 16.525 18.225 16.725L19.475 17.95C19.6917 18.1833 19.796 18.4417 19.788 18.725C19.7793 19.0083 19.675 19.2583 19.475 19.475C19.2583 19.6917 19.0083 19.8 18.725 19.8C18.4417 19.8 18.1833 19.6917 17.95 19.475ZM16.725 7.27499C16.5083 7.09165 16.4043 6.85399 16.413 6.56199C16.421 6.27065 16.525 6.00832 16.725 5.77499L17.95 4.52499C18.1833 4.30832 18.4417 4.20399 18.725 4.21199C19.0083 4.22065 19.2583 4.32499 19.475 4.52499C19.6917 4.74165 19.8 4.99165 19.8 5.27499C19.8 5.55832 19.6917 5.81665 19.475 6.04999L18.225 7.27499C18.0083 7.49165 17.7583 7.59999 17.475 7.59999C17.1917 7.59999 16.9417 7.49165 16.725 7.27499ZM4.52499 19.475C4.30832 19.2583 4.19999 19.0083 4.19999 18.725C4.19999 18.4417 4.30832 18.1833 4.52499 17.95L5.77499 16.725C5.99165 16.5083 6.23765 16.4043 6.51299 16.413C6.78765 16.421 7.04165 16.525 7.27499 16.725C7.49165 16.925 7.59599 17.1667 7.58799 17.45C7.57932 17.7333 7.47499 17.9917 7.27499 18.225L6.04999 19.475C5.81665 19.6917 5.55832 19.8 5.27499 19.8C4.99165 19.8 4.74165 19.6917 4.52499 19.475Z" fill="#FFBE3F"/>
</svg>
