<svg width="9" height="9" viewBox="0 0 9 9" fill="none" xmlns="http://www.w3.org/2000/svg">
<path d="M0.949266 9C0.692924 9 0.470627 8.90587 0.282376 8.71762C0.0941254 8.52937 0 8.30708 0 8.05073V0.961282C0 0.696929 0.0941254 0.470628 0.282376 0.282377C0.470627 0.0941255 0.692924 0 0.949266 0H8.03872C8.30307 0 8.52937 0.0941255 8.71762 0.282377C8.90587 0.470628 9 0.696929 9 0.961282V8.05073C9 8.30708 8.90587 8.52937 8.71762 8.71762C8.52937 8.90587 8.30307 9 8.03872 9H0.949266ZM0.949266 8.05073H8.03872V0.961282H0.949266V8.05073Z" fill="#7A7A7A"/>
</svg>
