<?xml version="1.0" encoding="UTF-8" ?>
<!DOCTYPE svg PUBLIC "-//W3C//DTD SVG 1.1//EN" "http://www.w3.org/Graphics/SVG/1.1/DTD/svg11.dtd">
<svg width="512pt" height="512pt" viewBox="0 0 512 512" version="1.1" xmlns="http://www.w3.org/2000/svg">
<g id="#73af00ff">
<path fill="#73af00" opacity="1.00" d=" M 14.66 96.61 C 21.74 90.84 30.93 88.24 39.97 88.30 C 83.55 88.27 127.13 88.27 170.72 88.29 C 170.74 200.10 170.74 311.90 170.72 423.71 C 128.48 423.75 86.24 423.69 44.00 423.73 C 36.78 423.83 29.34 423.37 22.69 420.28 C 9.43 414.52 0.52 400.78 0.00 386.40 L 0.00 125.63 C 0.51 114.45 5.76 103.50 14.66 96.61 Z" />
</g>
<g id="#f5f5f5ff">
<path fill="#f5f5f5" opacity="1.00" d=" M 170.72 88.29 C 227.50 88.27 284.28 88.27 341.07 88.30 C 340.99 200.10 340.97 311.90 341.08 423.70 C 284.29 423.73 227.50 423.73 170.72 423.71 C 170.74 311.90 170.74 200.10 170.72 88.29 M 255.98 202.92 C 259.39 205.12 262.98 207.65 264.40 211.65 C 266.40 216.40 265.23 221.63 263.63 226.30 C 260.31 216.80 250.83 210.46 240.85 210.47 C 238.30 213.08 235.72 215.66 233.14 218.24 C 233.14 218.98 233.14 220.46 233.14 221.20 C 231.73 220.79 230.32 220.40 228.91 219.99 C 229.23 218.69 229.58 217.40 229.91 216.11 C 228.83 214.01 227.74 211.92 226.65 209.82 C 221.33 212.75 219.70 220.51 223.76 225.13 C 226.48 228.67 231.44 227.66 234.95 229.85 C 230.79 235.03 223.60 239.60 224.34 247.11 C 225.27 253.39 232.09 255.08 237.00 257.29 C 236.83 261.29 231.77 260.96 229.05 259.89 C 220.68 256.86 216.33 248.01 214.94 239.73 C 212.44 240.04 209.94 240.41 207.46 240.85 C 208.65 247.95 211.35 254.98 216.26 260.36 C 214.25 261.72 213.26 264.79 215.33 266.57 C 225.26 276.02 238.51 281.82 252.17 282.83 C 252.18 284.14 252.19 285.46 252.20 286.78 C 250.05 286.83 248.02 287.80 246.51 289.30 C 241.66 288.20 237.11 286.15 232.88 283.57 C 231.46 285.67 230.06 287.78 228.68 289.90 C 233.71 293.03 239.16 295.50 244.94 296.87 C 246.19 299.58 248.78 301.79 251.87 301.85 C 257.20 302.23 264.59 302.94 267.07 296.87 C 272.84 295.49 278.30 293.03 283.33 289.90 C 281.94 287.77 280.53 285.66 279.08 283.58 C 274.88 286.17 270.32 288.19 265.49 289.30 C 263.97 287.81 261.95 286.83 259.80 286.78 C 259.81 285.46 259.82 284.14 259.83 282.83 C 273.50 281.82 286.77 276.01 296.68 266.54 C 298.31 265.14 298.10 262.59 296.75 261.08 C 298.40 262.18 300.18 263.06 301.93 264.01 C 301.83 258.02 303.12 252.06 302.27 246.08 C 301.84 235.16 298.86 223.85 291.57 215.45 C 284.41 207.17 273.41 202.93 262.61 202.83 C 260.41 202.47 258.17 202.80 255.98 202.92 M 191.33 248.63 C 191.32 255.31 192.43 261.94 194.34 268.34 C 193.71 271.68 194.85 274.81 197.70 276.72 C 199.81 281.01 202.49 284.98 205.22 288.90 C 205.63 292.14 207.97 294.28 211.00 295.14 C 214.95 298.81 219.27 302.06 223.88 304.86 C 225.58 307.51 228.40 308.67 231.48 308.56 C 247.09 314.86 265.15 314.95 280.70 308.42 C 283.72 308.61 287.20 307.98 288.36 304.74 C 292.91 301.93 297.19 298.68 301.13 295.05 C 302.50 294.50 304.03 294.21 305.23 293.28 C 306.79 291.99 306.78 289.79 307.32 288.00 C 309.95 284.51 312.25 280.79 314.20 276.87 C 315.39 275.86 316.85 275.07 317.72 273.73 C 318.79 271.95 318.00 269.88 317.83 267.98 C 319.56 261.68 320.66 255.20 320.71 248.65 C 318.17 248.65 315.64 248.65 313.11 248.67 C 312.93 254.76 312.19 260.91 310.07 266.66 C 308.81 268.47 308.05 270.53 307.69 272.70 C 305.91 276.69 303.57 280.40 300.89 283.85 C 299.03 285.19 297.02 286.63 296.39 288.98 C 292.89 292.37 289.07 295.44 284.83 297.86 C 282.01 297.95 279.64 299.32 277.88 301.46 C 264.03 307.02 248.04 307.22 234.24 301.39 C 232.98 298.67 230.01 298.08 227.32 297.97 C 223.38 295.67 219.73 292.91 216.44 289.76 C 215.61 287.05 213.74 284.98 211.14 283.88 C 208.59 280.64 206.41 277.11 204.59 273.41 C 204.61 270.63 203.84 267.81 201.49 266.11 C 200.01 260.41 198.94 254.59 198.89 248.68 C 196.37 248.66 193.85 248.64 191.33 248.63 Z" />
<path fill="#f5f5f5" opacity="1.00" d=" M 238.73 223.06 C 241.04 221.90 243.38 220.81 245.66 219.60 C 246.94 221.47 247.93 223.52 248.48 225.73 C 246.52 228.18 244.69 230.90 244.28 234.10 C 243.42 239.35 245.89 244.42 248.75 248.66 C 247.27 250.92 245.79 253.20 244.37 255.51 C 242.27 250.24 236.49 248.68 231.76 246.69 C 233.05 240.14 241.15 237.69 242.19 231.02 C 242.84 227.85 240.56 225.32 238.73 223.06 Z" />
<path fill="#f5f5f5" opacity="1.00" d=" M 267.20 235.42 C 273.52 239.27 279.97 242.90 286.37 246.61 C 288.58 251.61 291.33 256.50 295.53 260.11 C 293.66 260.10 291.94 260.78 290.32 261.63 C 283.69 257.76 277.20 253.66 270.53 249.87 C 269.67 245.00 268.66 240.15 267.20 235.42 Z" />
<path fill="#f5f5f5" opacity="1.00" d=" M 243.11 263.54 C 248.27 261.92 253.63 261.08 258.83 259.61 C 261.52 261.62 263.83 264.05 266.16 266.45 C 262.86 268.09 259.56 269.74 256.21 271.27 C 256.10 272.56 256.00 273.84 255.90 275.14 C 246.94 275.24 238.20 272.57 230.37 268.35 C 235.09 268.45 239.87 267.17 243.11 263.54 Z" />
<path fill="#f5f5f5" opacity="1.00" d=" M 271.20 271.45 C 271.22 268.90 271.24 266.35 271.21 263.80 C 273.36 266.02 275.52 268.22 277.73 270.38 C 273.98 272.00 270.07 273.25 266.09 274.20 C 266.95 272.45 267.81 270.70 268.67 268.95 C 269.51 269.79 270.35 270.61 271.20 271.45 Z" />
</g>
<g id="#ff4b55ff">
<path fill="#ff4b55" opacity="1.00" d=" M 341.07 88.30 C 384.38 88.25 427.69 88.29 471.01 88.28 C 477.98 88.28 485.13 89.33 491.32 92.71 C 503.75 98.99 511.77 112.46 512.00 126.32 L 512.00 386.31 C 511.50 397.26 506.51 408.01 497.92 414.92 C 490.75 421.00 481.29 423.79 471.98 423.71 C 428.34 423.72 384.71 423.74 341.08 423.70 C 340.97 311.90 340.99 200.10 341.07 88.30 Z" />
</g>
<g id="#874150ff">
<path fill="#874150" opacity="1.00" d=" M 255.98 202.92 C 258.17 202.80 260.41 202.47 262.61 202.83 C 267.65 204.66 273.08 206.22 276.96 210.14 C 286.97 219.15 288.28 234.06 286.37 246.61 C 279.97 242.90 273.52 239.27 267.20 235.42 C 266.28 232.28 264.96 229.28 263.63 226.30 C 265.23 221.63 266.40 216.40 264.40 211.65 C 262.98 207.65 259.39 205.12 255.98 202.92 Z" />
</g>
<g id="#9b4b5aff">
<path fill="#9b4b5a" opacity="1.00" d=" M 262.61 202.83 C 273.41 202.93 284.41 207.17 291.57 215.45 C 298.86 223.85 301.84 235.16 302.27 246.08 C 303.12 252.06 301.83 258.02 301.93 264.01 C 300.18 263.06 298.40 262.18 296.75 261.08 C 296.45 260.84 295.84 260.35 295.53 260.11 C 291.33 256.50 288.58 251.61 286.37 246.61 C 288.28 234.06 286.97 219.15 276.96 210.14 C 273.08 206.22 267.65 204.66 262.61 202.83 Z" />
</g>
<g id="#aad264ff">
<path fill="#aad264" opacity="1.00" d=" M 223.76 225.13 C 219.70 220.51 221.33 212.75 226.65 209.82 C 227.74 211.92 228.83 214.01 229.91 216.11 C 229.58 217.40 229.23 218.69 228.91 219.99 C 230.32 220.40 231.73 220.79 233.14 221.20 C 233.14 222.74 233.16 224.29 233.17 225.84 C 235.02 224.91 236.88 223.98 238.73 223.06 C 240.56 225.32 242.84 227.85 242.19 231.02 C 241.15 237.69 233.05 240.14 231.76 246.69 C 236.49 248.68 242.27 250.24 244.37 255.51 C 244.46 258.24 244.03 260.97 243.11 263.54 C 239.87 267.17 235.09 268.45 230.37 268.35 C 225.05 267.00 219.95 264.52 216.26 260.36 C 211.35 254.98 208.65 247.95 207.46 240.85 C 209.94 240.41 212.44 240.04 214.94 239.73 C 216.33 248.01 220.68 256.86 229.05 259.89 C 231.77 260.96 236.83 261.29 237.00 257.29 C 232.09 255.08 225.27 253.39 224.34 247.11 C 223.60 239.60 230.79 235.03 234.95 229.85 C 231.44 227.66 226.48 228.67 223.76 225.13 Z" />
<path fill="#aad264" opacity="1.00" d=" M 191.33 248.63 C 193.85 248.64 196.37 248.66 198.89 248.68 C 198.94 254.59 200.01 260.41 201.49 266.11 C 198.87 265.95 196.49 266.96 194.34 268.34 C 192.43 261.94 191.32 255.31 191.33 248.63 Z" />
<path fill="#aad264" opacity="1.00" d=" M 313.11 248.67 C 315.64 248.65 318.17 248.65 320.71 248.65 C 320.66 255.20 319.56 261.68 317.83 267.98 C 315.48 266.47 312.79 265.95 310.07 266.66 C 312.19 260.91 312.93 254.76 313.11 248.67 Z" />
<path fill="#aad264" opacity="1.00" d=" M 300.89 283.85 C 303.57 280.40 305.91 276.69 307.69 272.70 C 309.33 274.83 311.59 276.22 314.20 276.87 C 312.25 280.79 309.95 284.51 307.32 288.00 C 305.62 286.00 303.42 284.57 300.89 283.85 Z" />
<path fill="#aad264" opacity="1.00" d=" M 197.70 276.72 C 200.31 276.33 202.70 275.27 204.59 273.41 C 206.41 277.11 208.59 280.64 211.14 283.88 C 208.58 284.78 206.36 286.35 205.22 288.90 C 202.49 284.98 199.81 281.01 197.70 276.72 Z" />
<path fill="#aad264" opacity="1.00" d=" M 284.83 297.86 C 289.07 295.44 292.89 292.37 296.39 288.98 C 296.75 291.82 298.75 293.72 301.13 295.05 C 297.19 298.68 292.91 301.93 288.36 304.74 C 288.68 301.82 286.95 299.60 284.83 297.86 Z" />
<path fill="#aad264" opacity="1.00" d=" M 216.44 289.76 C 219.73 292.91 223.38 295.67 227.32 297.97 C 225.35 299.80 224.14 302.17 223.88 304.86 C 219.27 302.06 214.95 298.81 211.00 295.14 C 213.42 294.03 215.27 292.15 216.44 289.76 Z" />
<path fill="#aad264" opacity="1.00" d=" M 234.24 301.39 C 248.04 307.22 264.03 307.02 277.88 301.46 C 278.14 304.02 279.08 306.40 280.70 308.42 C 265.15 314.95 247.09 314.86 231.48 308.56 C 233.32 306.57 234.82 304.22 234.24 301.39 Z" />
</g>
<g id="#ffd250ff">
<path fill="#ffd250" opacity="1.00" d=" M 233.14 218.24 C 235.72 215.66 238.30 213.08 240.85 210.47 C 242.80 213.03 248.88 215.86 245.66 219.60 C 243.38 220.81 241.04 221.90 238.73 223.06 C 236.88 223.98 235.02 224.91 233.17 225.84 C 233.16 224.29 233.14 222.74 233.14 221.20 C 233.14 220.46 233.14 218.98 233.14 218.24 Z" />
<path fill="#ffd250" opacity="1.00" d=" M 256.21 271.27 C 259.56 269.74 262.86 268.09 266.16 266.45 C 266.99 267.28 267.83 268.12 268.67 268.95 C 267.81 270.70 266.95 272.45 266.09 274.20 C 262.73 274.79 259.31 275.06 255.90 275.14 C 256.00 273.84 256.10 272.56 256.21 271.27 Z" />
</g>
<g id="#783c46ff">
<path fill="#783c46" opacity="1.00" d=" M 240.85 210.47 C 250.83 210.46 260.31 216.80 263.63 226.30 C 264.96 229.28 266.28 232.28 267.20 235.42 C 268.66 240.15 269.67 245.00 270.53 249.87 C 271.08 254.49 271.10 259.15 271.21 263.80 C 271.24 266.35 271.22 268.90 271.20 271.45 C 270.35 270.61 269.51 269.79 268.67 268.95 C 267.83 268.12 266.99 267.28 266.16 266.45 C 263.83 264.05 261.52 261.62 258.83 259.61 C 255.51 255.92 251.88 252.51 248.75 248.66 C 245.89 244.42 243.42 239.35 244.28 234.10 C 244.69 230.90 246.52 228.18 248.48 225.73 C 247.93 223.52 246.94 221.47 245.66 219.60 C 248.88 215.86 242.80 213.03 240.85 210.47 Z" />
</g>
<g id="#732d37ff">
<path fill="#732d37" opacity="1.00" d=" M 244.37 255.51 C 245.79 253.20 247.27 250.92 248.75 248.66 C 251.88 252.51 255.51 255.92 258.83 259.61 C 253.63 261.08 248.27 261.92 243.11 263.54 C 244.03 260.97 244.46 258.24 244.37 255.51 Z" />
<path fill="#732d37" opacity="1.00" d=" M 270.53 249.87 C 277.20 253.66 283.69 257.76 290.32 261.63 C 291.56 262.39 292.80 263.14 294.04 263.91 C 288.99 266.45 283.93 268.95 278.88 271.49 C 278.59 271.21 278.02 270.66 277.73 270.38 C 275.52 268.22 273.36 266.02 271.21 263.80 C 271.10 259.15 271.08 254.49 270.53 249.87 Z" />
</g>
<g id="#00c3a0ff">
<path fill="#00c3a0" opacity="1.00" d=" M 290.32 261.63 C 291.94 260.78 293.66 260.10 295.53 260.11 C 295.84 260.35 296.45 260.84 296.75 261.08 C 298.10 262.59 298.31 265.14 296.68 266.54 C 286.77 276.01 273.50 281.82 259.83 282.83 C 259.82 284.14 259.81 285.46 259.80 286.78 C 257.27 286.64 254.73 286.65 252.20 286.78 C 252.19 285.46 252.18 284.14 252.17 282.83 C 238.51 281.82 225.26 276.02 215.33 266.57 C 213.26 264.79 214.25 261.72 216.26 260.36 C 219.95 264.52 225.05 267.00 230.37 268.35 C 238.20 272.57 246.94 275.24 255.90 275.14 C 259.31 275.06 262.73 274.79 266.09 274.20 C 270.07 273.25 273.98 272.00 277.73 270.38 C 278.02 270.66 278.59 271.21 278.88 271.49 C 283.93 268.95 288.99 266.45 294.04 263.91 C 292.80 263.14 291.56 262.39 290.32 261.63 Z" />
</g>
<g id="#ffe15aff">
<path fill="#ffe15a" opacity="1.00" d=" M 194.34 268.34 C 196.49 266.96 198.87 265.95 201.49 266.11 C 203.84 267.81 204.61 270.63 204.59 273.41 C 202.70 275.27 200.31 276.33 197.70 276.72 C 194.85 274.81 193.71 271.68 194.34 268.34 Z" />
<path fill="#ffe15a" opacity="1.00" d=" M 310.07 266.66 C 312.79 265.95 315.48 266.47 317.83 267.98 C 318.00 269.88 318.79 271.95 317.72 273.73 C 316.85 275.07 315.39 275.86 314.20 276.87 C 311.59 276.22 309.33 274.83 307.69 272.70 C 308.05 270.53 308.81 268.47 310.07 266.66 Z" />
<path fill="#ffe15a" opacity="1.00" d=" M 205.22 288.90 C 206.36 286.35 208.58 284.78 211.14 283.88 C 213.74 284.98 215.61 287.05 216.44 289.76 C 215.27 292.15 213.42 294.03 211.00 295.14 C 207.97 294.28 205.63 292.14 205.22 288.90 Z" />
<path fill="#ffe15a" opacity="1.00" d=" M 296.39 288.98 C 297.02 286.63 299.03 285.19 300.89 283.85 C 303.42 284.57 305.62 286.00 307.32 288.00 C 306.78 289.79 306.79 291.99 305.23 293.28 C 304.03 294.21 302.50 294.50 301.13 295.05 C 298.75 293.72 296.75 291.82 296.39 288.98 Z" />
<path fill="#ffe15a" opacity="1.00" d=" M 227.32 297.97 C 230.01 298.08 232.98 298.67 234.24 301.39 C 234.82 304.22 233.32 306.57 231.48 308.56 C 228.40 308.67 225.58 307.51 223.88 304.86 C 224.14 302.17 225.35 299.80 227.32 297.97 Z" />
<path fill="#ffe15a" opacity="1.00" d=" M 277.88 301.46 C 279.64 299.32 282.01 297.95 284.83 297.86 C 286.95 299.60 288.68 301.82 288.36 304.74 C 287.20 307.98 283.72 308.61 280.70 308.42 C 279.08 306.40 278.14 304.02 277.88 301.46 Z" />
</g>
<g id="#00aadcff">
<path fill="#00aadc" opacity="1.00" d=" M 228.68 289.90 C 230.06 287.78 231.46 285.67 232.88 283.57 C 237.11 286.15 241.66 288.20 246.51 289.30 C 244.83 291.47 244.43 294.22 244.94 296.87 C 239.16 295.50 233.71 293.03 228.68 289.90 Z" />
<path fill="#00aadc" opacity="1.00" d=" M 265.49 289.30 C 270.32 288.19 274.88 286.17 279.08 283.58 C 280.53 285.66 281.94 287.77 283.33 289.90 C 278.30 293.03 272.84 295.49 267.07 296.87 C 267.56 294.22 267.17 291.47 265.49 289.30 Z" />
</g>
<g id="#ffb478ff">
<path fill="#ffb478" opacity="1.00" d=" M 246.51 289.30 C 248.02 287.80 250.05 286.83 252.20 286.78 C 254.73 286.65 257.27 286.64 259.80 286.78 C 261.95 286.83 263.97 287.81 265.49 289.30 C 267.17 291.47 267.56 294.22 267.07 296.87 C 264.59 302.94 257.20 302.23 251.87 301.85 C 248.78 301.79 246.19 299.58 244.94 296.87 C 244.43 294.22 244.83 291.47 246.51 289.30 Z" />
</g>
</svg>
