<svg width="12" height="12" viewBox="0 0 12 12" fill="none" xmlns="http://www.w3.org/2000/svg">
<path d="M11.4835 0H3.82864C3.54712 0 3.31701 0.23011 3.31701 0.511628V3.31946H0.511628C0.23011 3.31946 0 3.54957 0 3.83109V11.4884C0 11.7699 0.23011 12 0.511628 12H8.16891C8.45043 12 8.68054 11.7699 8.68054 11.4884V8.67809H11.4884C11.7699 8.67809 12 8.44798 12 8.16646V0.511628C11.9951 0.23011 11.765 0 11.4835 0ZM7.65728 10.9988H0.996328V4.33782H3.31946V8.16646C3.31946 8.44798 3.54957 8.67809 3.83109 8.67809H7.65973V10.9988H7.65728ZM7.65728 7.65728H4.33782V4.33782H7.65483V7.65728H7.65728V7.65728ZM10.9988 7.65728H8.67564V3.82864C8.67564 3.54712 8.44553 3.31701 8.16401 3.31701H4.33782V0.996328H10.9988V7.65728Z" fill="#7A7A7A"/>
</svg>
