<?xml version="1.0" encoding="UTF-8" ?>
<!DOCTYPE svg PUBLIC "-//W3C//DTD SVG 1.1//EN" "http://www.w3.org/Graphics/SVG/1.1/DTD/svg11.dtd">
<svg width="512pt" height="512pt" viewBox="0 0 512 512" version="1.1" xmlns="http://www.w3.org/2000/svg">
<g id="#41479bff">
<path fill="#41479b" opacity="1.00" d=" M 6.73 104.63 C 13.80 94.12 26.37 87.94 38.95 88.00 C 102.70 88.00 166.45 88.00 230.19 88.00 C 233.57 89.03 237.24 91.15 237.91 94.94 C 238.88 101.27 238.13 107.71 238.34 114.09 C 238.34 122.69 238.34 131.28 238.35 139.88 C 238.35 148.48 238.35 157.09 238.35 165.70 C 238.34 174.30 238.34 182.91 238.35 191.51 C 238.35 200.10 238.35 208.69 238.35 217.28 C 238.34 225.88 238.35 234.48 238.34 243.09 C 238.14 249.40 238.84 255.77 237.95 262.05 C 237.37 265.80 233.85 268.11 230.41 268.95 C 156.93 268.97 83.46 268.95 9.98 268.96 C 5.05 269.39 0.35 265.72 0.00 260.70 L 0.00 121.61 C 1.22 115.61 3.06 109.61 6.73 104.63 M 21.24 114.37 C 18.75 114.38 16.26 114.44 13.79 114.78 C 15.50 116.63 17.48 118.19 19.53 119.65 C 18.77 121.98 18.10 124.34 17.56 126.73 C 19.92 125.83 22.02 124.40 24.00 122.86 C 25.99 124.38 28.04 125.92 30.49 126.61 C 29.88 124.27 29.20 121.95 28.47 119.65 C 30.51 118.19 32.48 116.62 34.23 114.81 C 31.76 114.44 29.25 114.38 26.76 114.37 C 26.07 112.30 25.46 110.18 24.52 108.21 C 22.05 108.39 22.38 112.53 21.24 114.37 M 71.17 107.63 C 70.35 109.87 69.61 112.13 68.85 114.38 C 66.73 114.91 62.94 113.21 61.91 115.58 C 63.48 117.06 65.28 118.24 67.06 119.43 C 66.34 121.89 65.70 124.37 65.37 126.91 C 67.53 125.73 69.56 124.35 71.53 122.88 C 73.55 124.32 75.62 125.70 77.83 126.86 C 77.48 124.36 76.84 121.91 76.09 119.51 C 77.98 118.16 79.86 116.80 81.69 115.37 C 79.51 113.92 76.79 114.48 74.33 114.37 C 73.46 112.06 73.15 109.32 71.17 107.63 M 116.42 114.38 C 113.91 114.36 111.40 114.39 108.94 114.90 C 110.71 116.64 112.67 118.18 114.69 119.65 C 113.97 121.95 113.28 124.27 112.69 126.61 C 115.13 125.96 117.15 124.45 119.02 122.83 C 121.07 124.36 123.22 125.76 125.59 126.75 C 125.06 124.36 124.41 121.99 123.66 119.66 C 125.69 118.19 127.65 116.62 129.41 114.84 C 126.93 114.43 124.42 114.37 121.91 114.37 C 121.16 112.12 120.41 109.88 119.61 107.66 C 117.67 109.38 117.24 112.05 116.42 114.38 M 166.36 107.62 C 165.53 109.85 164.78 112.12 164.03 114.38 C 161.91 114.93 158.16 113.21 157.07 115.54 C 158.68 117.07 160.51 118.32 162.29 119.64 C 161.50 121.99 160.86 124.38 160.40 126.82 C 162.71 125.71 164.87 124.32 166.97 122.84 C 168.81 124.48 170.83 125.95 173.22 126.66 C 172.65 124.27 171.95 121.92 171.22 119.57 C 172.99 118.31 174.79 117.08 176.40 115.61 C 175.47 113.20 171.62 114.93 169.59 114.46 C 168.77 112.08 168.22 109.45 166.36 107.62 M 211.61 114.37 C 209.13 114.45 206.46 113.98 204.24 115.33 C 206.08 116.79 207.96 118.18 209.87 119.56 C 209.18 121.88 208.45 124.18 207.82 126.52 C 210.36 126.02 212.36 124.31 214.42 122.87 C 216.38 124.37 218.43 125.77 220.64 126.89 C 220.31 124.43 219.62 122.05 218.76 119.74 C 220.54 118.36 222.38 117.07 224.03 115.53 C 222.92 113.23 219.22 114.91 217.10 114.39 C 216.32 112.12 215.57 109.85 214.76 107.60 C 212.84 109.36 212.43 112.03 211.61 114.37 M 47.40 122.64 C 46.56 124.88 45.81 127.15 45.05 129.42 C 42.88 129.90 39.34 128.32 38.09 130.59 C 39.71 132.09 41.54 133.35 43.32 134.66 C 42.54 137.02 41.90 139.41 41.43 141.85 C 43.72 140.77 45.85 139.40 47.88 137.88 C 49.81 139.45 51.83 140.99 54.27 141.64 C 53.68 139.29 52.98 136.97 52.24 134.66 C 54.06 133.33 55.91 132.02 57.58 130.50 C 56.04 128.40 52.83 129.86 50.62 129.50 C 49.78 127.13 49.30 124.46 47.40 122.64 M 92.66 129.39 C 90.18 129.48 87.49 129.01 85.26 130.38 C 87.09 131.82 88.97 133.19 90.88 134.53 C 90.24 136.87 89.50 139.18 88.85 141.52 C 91.46 141.08 93.47 139.27 95.60 137.84 C 97.43 139.47 99.46 140.85 101.69 141.88 C 101.22 139.36 100.57 136.88 99.95 134.40 C 101.86 133.12 103.73 131.78 105.53 130.36 C 103.32 128.95 100.59 129.53 98.12 129.41 C 97.36 127.15 96.60 124.88 95.79 122.64 C 93.89 124.40 93.45 127.05 92.66 129.39 M 142.49 123.15 C 141.55 125.16 140.91 127.30 140.21 129.41 C 137.70 129.37 135.18 129.41 132.72 129.97 C 134.53 131.67 136.50 133.20 138.49 134.68 C 137.75 137.00 137.08 139.35 136.51 141.72 C 138.89 140.86 140.99 139.44 142.97 137.88 C 144.95 139.43 147.03 140.89 149.43 141.71 C 148.88 139.34 148.18 137.00 147.44 134.68 C 149.49 133.23 151.46 131.66 153.18 129.82 C 150.71 129.47 148.21 129.41 145.73 129.40 C 144.61 127.49 144.93 123.67 142.49 123.15 M 190.13 122.64 C 189.31 124.88 188.57 127.15 187.81 129.41 C 185.35 129.54 182.62 128.92 180.44 130.37 C 182.36 131.85 184.32 133.28 186.18 134.84 C 185.24 137.10 184.57 139.46 184.29 141.90 C 186.52 140.74 188.62 139.34 190.67 137.90 C 192.58 139.44 194.62 140.82 196.86 141.86 C 196.42 139.36 195.77 136.92 195.08 134.49 C 196.99 133.17 198.87 131.80 200.69 130.36 C 198.46 128.99 195.76 129.50 193.28 129.41 C 192.41 127.08 192.12 124.33 190.13 122.64 M 21.25 145.03 C 18.75 145.00 16.20 144.95 13.79 145.76 C 15.65 147.34 17.59 148.84 19.53 150.34 C 18.72 152.68 18.06 155.08 17.67 157.53 C 19.92 156.43 21.99 155.02 24.00 153.54 C 26.01 155.02 28.09 156.44 30.34 157.53 C 29.94 155.08 29.28 152.69 28.47 150.35 C 30.39 148.84 32.33 147.35 34.21 145.77 C 31.81 144.92 29.25 145.01 26.75 145.03 C 26.09 143.00 25.48 140.95 24.58 139.01 C 21.99 139.10 22.36 143.17 21.25 145.03 M 71.13 138.34 C 70.35 140.56 69.60 142.80 68.85 145.03 C 66.43 145.06 64.02 145.11 61.60 145.24 C 62.92 147.44 65.08 148.85 67.14 150.26 C 66.42 152.55 65.70 154.85 65.10 157.18 C 67.59 156.61 69.63 155.03 71.62 153.51 C 73.60 155.05 75.67 156.50 78.02 157.43 C 77.50 155.00 76.79 152.63 76.05 150.26 C 78.06 148.83 80.28 147.50 81.43 145.22 C 79.06 145.11 76.69 145.05 74.32 145.01 C 73.45 142.72 73.21 139.94 71.13 138.34 M 116.63 144.91 C 114.04 144.92 111.44 145.03 108.94 145.73 C 110.72 147.33 112.64 148.77 114.65 150.08 C 113.96 152.52 113.24 154.96 112.84 157.47 C 115.11 156.43 117.19 155.04 119.18 153.54 C 121.18 154.99 123.23 156.40 125.40 157.58 C 125.11 155.04 124.47 152.57 123.66 150.16 C 125.74 148.81 127.88 147.43 129.21 145.27 C 126.78 145.12 124.34 145.05 121.91 145.03 C 121.16 142.77 120.40 140.51 119.56 138.29 C 117.70 140.02 117.23 142.56 116.63 144.91 M 166.36 138.29 C 165.53 140.52 164.77 142.77 164.03 145.03 C 161.61 145.06 159.19 145.11 156.77 145.24 C 158.01 147.46 160.20 148.80 162.28 150.13 C 161.46 152.55 160.85 155.04 160.57 157.58 C 162.73 156.39 164.76 154.97 166.76 153.53 C 168.75 155.05 170.84 156.45 173.13 157.46 C 172.70 155.02 171.99 152.65 171.22 150.30 C 173.18 148.82 175.13 147.32 177.00 145.72 C 174.51 145.02 171.92 144.91 169.36 144.93 C 168.68 142.59 168.25 140.01 166.36 138.29 M 211.72 144.95 C 209.27 145.06 206.81 145.08 204.37 145.22 C 205.66 147.43 207.84 148.83 209.88 150.28 C 209.14 152.61 208.41 154.95 207.91 157.35 C 210.27 156.48 212.36 155.07 214.32 153.53 C 216.34 154.97 218.38 156.39 220.57 157.57 C 220.31 155.06 219.63 152.63 218.80 150.26 C 220.88 148.85 222.98 147.39 224.42 145.29 C 221.98 145.12 219.54 145.05 217.10 145.02 C 216.33 142.75 215.56 140.49 214.70 138.25 C 212.93 140.07 212.38 142.59 211.72 144.95 M 47.43 153.30 C 46.57 155.53 45.81 157.79 45.06 160.06 C 42.63 160.09 40.20 160.15 37.78 160.30 C 39.11 162.46 41.26 163.86 43.31 165.27 C 42.49 167.66 41.84 170.10 41.58 172.62 C 43.75 171.43 45.78 170.02 47.78 168.57 C 49.78 170.07 51.86 171.48 54.15 172.50 C 53.72 170.05 53.03 167.67 52.25 165.32 C 54.22 163.85 56.17 162.35 58.02 160.73 C 55.52 160.07 52.94 159.94 50.38 159.97 C 49.76 157.60 49.24 155.08 47.43 153.30 M 92.68 160.02 C 90.13 159.99 87.56 160.06 85.09 160.74 C 86.97 162.34 88.93 163.84 90.90 165.32 C 90.16 167.67 89.44 170.02 88.92 172.43 C 91.28 171.61 93.31 170.13 95.18 168.52 C 97.27 169.92 99.34 171.35 101.52 172.61 C 101.38 170.09 100.67 167.66 99.83 165.29 C 101.87 163.85 104.09 162.50 105.33 160.26 C 102.93 160.13 100.53 160.09 98.12 160.07 C 97.36 157.82 96.62 155.56 95.81 153.32 C 93.84 155.02 93.47 157.70 92.68 160.02 M 142.39 154.03 C 141.48 155.96 140.88 158.02 140.22 160.05 C 137.70 160.03 135.16 160.03 132.72 160.72 C 134.59 162.34 136.55 163.86 138.50 165.38 C 137.67 167.72 137.02 170.13 136.67 172.59 C 138.89 171.44 140.95 170.04 142.97 168.57 C 144.98 170.05 147.05 171.45 149.29 172.57 C 148.89 170.12 148.25 167.71 147.45 165.36 C 149.39 163.86 151.34 162.35 153.19 160.74 C 150.77 160.02 148.23 160.04 145.72 160.06 C 144.61 158.21 144.97 154.09 142.39 154.03 M 190.18 153.26 C 189.33 155.50 188.57 157.78 187.80 160.06 C 185.40 160.09 183.01 160.14 180.61 160.26 C 181.86 162.50 184.08 163.87 186.12 165.30 C 185.33 167.68 184.32 170.09 184.51 172.66 C 186.59 171.36 188.59 169.95 190.61 168.55 C 192.58 170.07 194.59 171.67 197.05 172.33 C 196.45 169.96 195.73 167.63 195.01 165.30 C 197.02 163.86 199.29 162.55 200.41 160.24 C 198.03 160.13 195.65 160.10 193.28 160.06 C 192.50 157.70 192.00 155.09 190.18 153.26 M 21.11 175.85 C 18.65 175.63 16.13 175.54 13.82 176.53 C 15.68 178.04 17.61 179.49 19.53 180.94 C 18.67 183.30 18.03 185.74 17.81 188.25 C 19.96 187.04 21.99 185.63 24.00 184.20 C 26.01 185.64 28.06 187.05 30.24 188.24 C 29.96 185.74 29.31 183.31 28.47 180.94 C 30.54 179.51 32.49 177.91 34.19 176.06 C 31.70 175.77 29.20 175.70 26.69 175.63 C 25.97 173.26 25.16 170.92 24.01 168.73 C 22.83 171.01 21.94 173.42 21.11 175.85 M 68.83 175.69 C 66.37 175.72 63.91 175.78 61.46 175.95 C 62.98 177.99 65.04 179.51 67.13 180.92 C 66.38 183.26 65.71 185.63 65.18 188.04 C 67.52 187.08 69.64 185.70 71.63 184.16 C 73.58 185.72 75.66 187.13 77.98 188.09 C 77.52 185.66 76.80 183.28 76.05 180.93 C 78.13 179.52 80.19 178.01 81.70 175.96 C 79.25 175.79 76.80 175.71 74.35 175.69 C 73.58 173.39 72.78 171.10 71.90 168.84 C 70.26 170.81 69.59 173.30 68.83 175.69 M 116.42 175.69 C 113.93 175.76 111.29 175.37 109.02 176.63 C 110.89 178.10 112.79 179.51 114.69 180.93 C 113.86 183.30 113.18 185.74 113.02 188.26 C 115.16 187.04 117.18 185.63 119.18 184.19 C 121.17 185.60 123.17 187.01 125.26 188.27 C 125.24 185.73 124.46 183.31 123.65 180.93 C 125.74 179.52 127.72 177.95 129.33 175.99 C 126.87 175.79 124.40 175.71 121.93 175.68 C 121.18 173.29 120.31 170.92 119.11 168.71 C 118.04 170.97 117.17 173.31 116.42 175.69 M 164.01 175.68 C 161.55 175.72 159.09 175.78 156.64 175.97 C 158.18 177.99 160.21 179.52 162.29 180.93 C 161.48 183.30 160.69 185.73 160.69 188.27 C 162.77 187.00 164.77 185.59 166.77 184.19 C 168.75 185.69 170.82 187.09 173.05 188.19 C 172.77 185.70 171.99 183.31 171.22 180.93 C 173.28 179.49 175.37 178.03 176.82 175.93 C 174.39 175.78 171.95 175.71 169.51 175.69 C 168.76 173.32 167.91 170.99 166.89 168.73 C 165.59 170.90 164.74 173.28 164.01 175.68 M 211.58 175.68 C 209.13 175.71 206.68 175.79 204.24 175.97 C 205.76 177.99 207.80 179.52 209.87 180.93 C 209.10 183.30 208.37 185.68 207.98 188.15 C 210.26 187.10 212.35 185.71 214.32 184.17 C 216.30 185.56 218.28 186.96 220.33 188.26 C 220.59 185.70 219.55 183.30 218.80 180.93 C 220.88 179.51 222.95 178.00 224.48 175.96 C 222.02 175.78 219.56 175.72 217.11 175.69 C 216.39 173.27 215.49 170.90 214.19 168.74 C 213.21 171.01 212.36 173.33 211.58 175.68 M 45.04 190.72 C 42.58 190.75 40.13 190.81 37.68 190.98 C 39.19 193.02 41.24 194.55 43.32 195.95 C 42.50 198.33 41.80 200.78 41.64 203.31 C 43.77 202.06 45.79 200.65 47.80 199.22 C 49.79 200.69 51.83 202.10 54.01 203.26 C 53.77 200.75 53.07 198.33 52.25 195.96 C 54.15 194.54 56.05 193.13 57.92 191.68 C 55.68 190.35 53.02 190.81 50.55 190.72 C 49.79 188.34 48.93 186.01 47.88 183.75 C 46.64 185.95 45.78 188.32 45.04 190.72 M 92.61 190.72 C 90.17 190.75 87.72 190.81 85.29 190.96 C 86.77 193.04 88.83 194.55 90.92 195.97 C 90.13 198.33 89.39 200.72 89.04 203.19 C 91.31 202.11 93.41 200.72 95.42 199.20 C 97.38 200.63 99.36 202.03 101.42 203.31 C 101.51 200.75 100.64 198.33 99.83 195.96 C 101.93 194.55 103.99 193.02 105.50 190.98 C 103.05 190.81 100.59 190.75 98.14 190.72 C 97.43 188.31 96.53 185.94 95.20 183.79 C 94.24 186.06 93.39 188.37 92.61 190.72 M 140.19 190.71 C 137.71 190.75 135.23 190.81 132.77 191.05 C 134.45 192.94 136.42 194.53 138.49 195.96 C 137.67 198.34 136.98 200.76 136.73 203.27 C 138.91 202.09 140.96 200.68 142.97 199.23 C 144.98 200.68 147.02 202.09 149.21 203.26 C 148.93 200.76 148.27 198.34 147.44 195.97 C 149.49 194.55 151.44 192.98 153.11 191.12 C 150.61 190.80 148.09 190.72 145.58 190.64 C 144.96 188.25 144.11 185.94 142.98 183.76 C 141.81 185.98 140.98 188.34 140.19 190.71 M 187.80 190.72 C 185.35 190.75 182.89 190.81 180.44 190.98 C 181.95 193.03 184.01 194.55 186.10 195.96 C 185.36 198.29 184.63 200.64 184.10 203.04 C 186.51 202.22 188.59 200.74 190.58 199.18 C 192.54 200.74 194.62 202.17 196.95 203.14 C 196.49 200.70 195.78 198.32 195.02 195.97 C 197.10 194.54 199.18 193.05 200.66 190.96 C 198.20 190.81 195.74 190.75 193.28 190.72 C 192.53 188.44 191.75 186.17 190.92 183.92 C 189.10 185.75 188.60 188.36 187.80 190.72 M 23.50 200.12 C 22.58 202.12 21.94 204.24 21.25 206.34 C 18.74 206.34 16.24 206.40 13.76 206.79 C 15.52 208.59 17.49 210.15 19.53 211.62 C 18.80 213.92 18.12 216.24 17.51 218.58 C 19.97 217.89 22.01 216.35 24.00 214.82 C 25.99 216.34 28.03 217.90 30.49 218.58 C 29.88 216.24 29.20 213.92 28.47 211.62 C 30.50 210.15 32.47 208.58 34.25 206.81 C 31.77 206.40 29.26 206.33 26.75 206.34 C 25.63 204.43 25.97 200.53 23.50 200.12 M 68.85 206.35 C 66.67 206.36 64.48 206.28 62.31 206.54 C 61.57 208.92 65.64 209.89 67.09 211.42 C 66.37 213.88 65.43 216.33 65.54 218.93 C 67.60 217.65 69.59 216.26 71.56 214.85 C 73.56 216.27 75.60 217.66 77.75 218.86 C 77.51 216.33 76.86 213.88 76.08 211.48 C 77.86 210.24 79.66 209.04 81.26 207.57 C 80.17 205.21 76.49 206.84 74.34 206.34 C 73.57 204.07 72.80 201.80 71.96 199.57 C 70.09 201.36 69.67 204.01 68.85 206.35 M 116.42 206.34 C 113.91 206.34 111.39 206.40 108.91 206.81 C 110.69 208.58 112.66 210.15 114.69 211.62 C 113.97 213.93 113.27 216.25 112.70 218.60 C 115.13 217.87 117.19 216.38 119.16 214.83 C 121.16 216.35 123.26 217.75 125.56 218.78 C 125.06 216.35 124.42 213.96 123.66 211.61 C 125.58 210.08 128.04 208.90 128.99 206.48 C 126.63 206.40 124.27 206.38 121.91 206.36 C 121.17 204.10 120.41 201.84 119.58 199.61 C 117.67 201.35 117.24 204.00 116.42 206.34 M 166.37 199.59 C 165.53 201.83 164.78 204.09 164.02 206.36 C 161.66 206.38 159.30 206.40 156.94 206.48 C 157.85 208.91 160.33 210.04 162.26 211.51 C 161.56 213.89 160.88 216.26 160.33 218.68 C 162.69 217.78 164.79 216.38 166.77 214.83 C 168.74 216.37 170.81 217.84 173.22 218.63 C 172.65 216.24 171.95 213.89 171.24 211.55 C 173.28 210.12 175.25 208.57 177.02 206.81 C 174.54 206.40 172.02 206.34 169.52 206.34 C 168.73 203.99 168.22 201.39 166.37 199.59 M 211.76 206.30 C 209.24 206.40 206.50 205.91 204.26 207.33 C 206.10 208.77 207.98 210.17 209.87 211.55 C 209.17 213.88 208.44 216.20 207.84 218.56 C 210.34 217.87 212.41 216.31 214.48 214.81 C 216.39 216.38 218.43 217.79 220.72 218.78 C 220.30 216.38 219.62 214.05 218.73 211.79 C 220.18 210.01 224.05 209.02 223.69 206.54 C 221.49 206.29 219.29 206.36 217.09 206.36 C 216.33 204.12 215.59 201.87 214.82 199.64 C 212.71 201.19 212.50 203.99 211.76 206.30 M 47.39 214.63 C 46.56 216.85 45.81 219.10 45.05 221.35 C 42.65 221.43 40.13 221.08 37.83 222.00 C 39.37 223.84 41.37 225.22 43.31 226.61 C 42.54 228.97 41.90 231.37 41.43 233.81 C 43.73 232.72 45.87 231.35 47.92 229.86 C 49.82 231.44 51.85 232.91 54.26 233.65 C 53.69 231.27 52.98 228.93 52.25 226.60 C 54.31 225.16 56.28 223.60 58.03 221.79 C 55.55 221.42 53.05 221.36 50.55 221.35 C 49.75 219.01 49.29 216.38 47.39 214.63 M 92.65 221.34 C 90.18 221.45 87.46 220.91 85.28 222.37 C 87.12 223.79 89.00 225.17 90.89 226.52 C 90.22 228.86 89.49 231.18 88.86 233.53 C 91.42 232.95 93.47 231.27 95.59 229.83 C 97.43 231.44 99.46 232.81 101.68 233.85 C 101.33 231.40 100.66 229.03 99.78 226.73 C 101.55 225.36 103.39 224.08 105.03 222.55 C 104.03 220.21 100.24 221.89 98.13 221.36 C 97.36 219.09 96.59 216.82 95.74 214.59 C 93.97 216.43 93.39 218.97 92.65 221.34 M 142.46 215.17 C 141.54 217.15 140.90 219.26 140.21 221.33 C 137.71 221.35 135.20 221.43 132.73 221.84 C 134.50 223.61 136.47 225.16 138.50 226.63 C 137.77 228.93 137.09 231.24 136.48 233.58 C 138.95 232.93 140.98 231.37 142.97 229.85 C 144.96 231.37 146.99 232.93 149.45 233.59 C 148.86 231.24 148.16 228.92 147.44 226.62 C 149.46 225.16 151.42 223.61 153.20 221.86 C 150.73 221.42 148.23 221.35 145.73 221.34 C 144.59 219.48 144.92 215.50 142.46 215.17 M 187.81 221.35 C 185.65 221.87 182.02 220.24 180.84 222.55 C 182.45 224.03 184.28 225.24 186.08 226.47 C 185.34 228.91 184.35 231.35 184.55 233.95 C 186.57 232.72 188.50 231.33 190.35 229.84 C 192.44 231.25 194.52 232.67 196.75 233.87 C 196.47 231.35 195.82 228.90 195.05 226.49 C 196.94 225.15 198.82 223.79 200.66 222.38 C 198.50 220.87 195.74 221.49 193.28 221.34 C 192.51 219.07 191.75 216.79 190.90 214.55 C 189.09 216.39 188.61 218.99 187.81 221.35 M 21.23 236.97 C 18.73 236.95 16.17 236.89 13.77 237.75 C 15.54 239.39 17.98 240.51 19.31 242.54 C 18.77 244.86 18.10 247.15 17.66 249.50 C 19.91 248.41 21.99 246.99 24.00 245.51 C 26.01 246.99 28.08 248.39 30.32 249.50 C 29.97 247.06 29.30 244.68 28.43 242.38 C 30.34 240.82 32.31 239.33 34.20 237.74 C 31.82 236.88 29.26 236.95 26.77 236.97 C 26.01 234.60 25.16 232.25 24.00 230.04 C 22.83 232.24 21.99 234.59 21.23 236.97 M 71.13 230.29 C 70.35 232.50 69.61 234.74 68.86 236.97 C 66.43 237.01 64.01 237.07 61.60 237.22 C 62.93 239.39 65.08 240.81 67.14 242.21 C 66.41 244.52 65.69 246.84 65.11 249.20 C 67.59 248.56 69.63 246.99 71.63 245.47 C 73.58 247.02 75.62 248.52 78.04 249.24 C 77.48 246.87 76.77 244.54 76.05 242.22 C 78.12 240.82 80.18 239.33 81.63 237.26 C 79.19 237.08 76.75 237.00 74.30 236.94 C 73.47 234.64 73.16 231.91 71.13 230.29 M 116.52 236.92 C 113.98 236.93 111.38 236.87 108.96 237.78 C 110.81 239.32 112.74 240.78 114.68 242.21 C 113.92 244.58 113.20 246.98 112.86 249.46 C 115.12 248.40 117.19 247.00 119.18 245.50 C 121.18 246.97 123.23 248.38 125.44 249.53 C 125.13 247.02 124.45 244.59 123.65 242.20 C 125.71 240.80 127.83 239.37 129.21 237.24 C 126.78 237.08 124.34 237.00 121.91 236.97 C 121.21 234.83 120.57 232.68 119.65 230.63 C 117.22 231.56 117.51 234.89 116.52 236.92 M 166.35 230.26 C 165.52 232.47 164.78 234.72 164.03 236.96 C 161.58 237.00 159.14 237.08 156.70 237.26 C 158.12 239.35 160.22 240.80 162.28 242.20 C 161.49 244.59 160.84 247.02 160.49 249.51 C 162.71 248.39 164.76 246.98 166.76 245.50 C 168.74 247.01 170.83 248.42 173.12 249.43 C 172.70 246.97 171.99 244.58 171.21 242.22 C 173.19 240.73 175.55 239.48 176.65 237.13 C 174.23 237.06 171.82 236.99 169.41 236.93 C 168.70 234.59 168.27 231.97 166.35 230.26 M 211.68 236.91 C 209.13 236.90 206.57 236.99 204.10 237.68 C 205.95 239.29 207.90 240.77 209.88 242.24 C 209.13 244.59 208.41 246.95 207.89 249.36 C 210.27 248.49 212.34 247.03 214.33 245.50 C 216.34 246.99 218.41 248.40 220.68 249.48 C 220.26 247.00 219.60 244.58 218.81 242.20 C 220.88 240.79 223.00 239.36 224.41 237.25 C 221.97 237.08 219.53 237.01 217.10 236.96 C 216.33 234.70 215.56 232.45 214.70 230.22 C 212.92 232.03 212.39 234.57 211.68 236.91 Z" />
</g>
<g id="#ff4b55ff">
<path fill="#ff4b55" opacity="1.00" d=" M 230.19 88.00 C 311.49 88.15 392.79 87.94 474.08 88.10 C 489.91 88.25 505.19 98.95 509.93 114.18 C 419.40 113.98 328.87 114.15 238.34 114.09 C 238.13 107.71 238.88 101.27 237.91 94.94 C 237.24 91.15 233.57 89.03 230.19 88.00 Z" />
<path fill="#ff4b55" opacity="1.00" d=" M 238.35 139.88 C 329.56 139.87 420.78 139.88 512.00 139.88 L 512.00 165.69 C 420.78 165.69 329.56 165.68 238.35 165.70 C 238.35 157.09 238.35 148.48 238.35 139.88 Z" />
<path fill="#ff4b55" opacity="1.00" d=" M 238.35 191.51 C 329.56 191.48 420.78 191.51 512.00 191.50 L 512.00 217.28 C 420.78 217.28 329.56 217.29 238.35 217.28 C 238.35 208.69 238.35 200.10 238.35 191.51 Z" />
<path fill="#ff4b55" opacity="1.00" d=" M 238.34 243.09 C 329.56 243.09 420.78 243.09 512.00 243.09 L 512.00 268.91 C 418.14 268.94 324.27 268.86 230.41 268.95 C 233.85 268.11 237.37 265.80 237.95 262.05 C 238.84 255.77 238.14 249.40 238.34 243.09 Z" />
<path fill="#ff4b55" opacity="1.00" d=" M 0.00 294.72 C 170.67 294.72 341.33 294.72 512.00 294.72 L 512.00 320.65 C 460.99 320.30 409.97 320.60 358.95 320.50 C 239.30 320.50 119.65 320.50 0.00 320.50 L 0.00 294.72 Z" />
<path fill="#ff4b55" opacity="1.00" d=" M 0.00 346.31 C 170.67 346.31 341.33 346.31 512.00 346.31 L 512.00 372.12 C 341.33 372.13 170.67 372.12 0.00 372.12 L 0.00 346.31 Z" />
<path fill="#ff4b55" opacity="1.00" d=" M 2.16 398.14 C 8.76 397.71 15.37 397.96 21.98 397.91 C 160.63 397.90 299.28 397.91 437.93 397.91 C 461.90 398.06 485.88 397.60 509.84 398.14 C 504.86 413.57 489.12 424.15 473.04 423.94 C 330.71 423.99 188.38 423.93 46.04 423.96 C 40.14 424.02 34.13 424.07 28.38 422.50 C 16.34 419.39 6.07 409.97 2.16 398.14 Z" />
</g>
<g id="#f5f5f5ff">
<path fill="#f5f5f5" opacity="1.00" d=" M 21.24 114.37 C 22.38 112.53 22.05 108.39 24.52 108.21 C 25.46 110.18 26.07 112.30 26.76 114.37 C 29.25 114.38 31.76 114.44 34.23 114.81 C 32.48 116.62 30.51 118.19 28.47 119.65 C 29.20 121.95 29.88 124.27 30.49 126.61 C 28.04 125.92 25.99 124.38 24.00 122.86 C 22.02 124.40 19.92 125.83 17.56 126.73 C 18.10 124.34 18.77 121.98 19.53 119.65 C 17.48 118.19 15.50 116.63 13.79 114.78 C 16.26 114.44 18.75 114.38 21.24 114.37 Z" />
<path fill="#f5f5f5" opacity="1.00" d=" M 71.17 107.63 C 73.15 109.32 73.46 112.06 74.33 114.37 C 76.79 114.48 79.51 113.92 81.69 115.37 C 79.86 116.80 77.98 118.16 76.09 119.51 C 76.84 121.91 77.48 124.36 77.83 126.86 C 75.62 125.70 73.55 124.32 71.53 122.88 C 69.56 124.35 67.53 125.73 65.37 126.91 C 65.70 124.37 66.34 121.89 67.06 119.43 C 65.28 118.24 63.48 117.06 61.91 115.58 C 62.94 113.21 66.73 114.91 68.85 114.38 C 69.61 112.13 70.35 109.87 71.17 107.63 Z" />
<path fill="#f5f5f5" opacity="1.00" d=" M 116.42 114.38 C 117.24 112.05 117.67 109.38 119.61 107.66 C 120.41 109.88 121.16 112.12 121.91 114.37 C 124.42 114.37 126.93 114.43 129.41 114.84 C 127.65 116.62 125.69 118.19 123.66 119.66 C 124.41 121.99 125.06 124.36 125.59 126.75 C 123.22 125.76 121.07 124.36 119.02 122.83 C 117.15 124.45 115.13 125.96 112.69 126.61 C 113.28 124.27 113.97 121.95 114.69 119.65 C 112.67 118.18 110.71 116.64 108.94 114.90 C 111.40 114.39 113.91 114.36 116.42 114.38 Z" />
<path fill="#f5f5f5" opacity="1.00" d=" M 166.36 107.62 C 168.22 109.45 168.77 112.08 169.59 114.46 C 171.62 114.93 175.47 113.20 176.40 115.61 C 174.79 117.08 172.99 118.31 171.22 119.57 C 171.95 121.92 172.65 124.27 173.22 126.66 C 170.83 125.95 168.81 124.48 166.97 122.84 C 164.87 124.32 162.71 125.71 160.40 126.82 C 160.86 124.38 161.50 121.99 162.29 119.64 C 160.51 118.32 158.68 117.07 157.07 115.54 C 158.16 113.21 161.91 114.93 164.03 114.38 C 164.78 112.12 165.53 109.85 166.36 107.62 Z" />
<path fill="#f5f5f5" opacity="1.00" d=" M 211.61 114.37 C 212.43 112.03 212.84 109.36 214.76 107.60 C 215.57 109.85 216.32 112.12 217.10 114.39 C 219.22 114.91 222.92 113.23 224.03 115.53 C 222.38 117.07 220.54 118.36 218.76 119.74 C 219.62 122.05 220.31 124.43 220.64 126.89 C 218.43 125.77 216.38 124.37 214.42 122.87 C 212.36 124.31 210.36 126.02 207.82 126.52 C 208.45 124.18 209.18 121.88 209.87 119.56 C 207.96 118.18 206.08 116.79 204.24 115.33 C 206.46 113.98 209.13 114.45 211.61 114.37 Z" />
<path fill="#f5f5f5" opacity="1.00" d=" M 238.34 114.09 C 328.87 114.15 419.40 113.98 509.93 114.18 C 511.06 117.98 511.64 121.92 512.00 125.87 L 512.00 139.88 C 420.78 139.88 329.56 139.87 238.35 139.88 C 238.34 131.28 238.34 122.69 238.34 114.09 Z" />
<path fill="#f5f5f5" opacity="1.00" d=" M 47.40 122.64 C 49.30 124.46 49.78 127.13 50.62 129.50 C 52.83 129.86 56.04 128.40 57.58 130.50 C 55.91 132.02 54.06 133.33 52.24 134.66 C 52.98 136.97 53.68 139.29 54.27 141.64 C 51.83 140.99 49.81 139.45 47.88 137.88 C 45.85 139.40 43.72 140.77 41.43 141.85 C 41.90 139.41 42.54 137.02 43.32 134.66 C 41.54 133.35 39.71 132.09 38.09 130.59 C 39.34 128.32 42.88 129.90 45.05 129.42 C 45.81 127.15 46.56 124.88 47.40 122.64 Z" />
<path fill="#f5f5f5" opacity="1.00" d=" M 92.66 129.39 C 93.45 127.05 93.89 124.40 95.79 122.64 C 96.60 124.88 97.36 127.15 98.12 129.41 C 100.59 129.53 103.32 128.95 105.53 130.36 C 103.73 131.78 101.86 133.12 99.95 134.40 C 100.57 136.88 101.22 139.36 101.69 141.88 C 99.46 140.85 97.43 139.47 95.60 137.84 C 93.47 139.27 91.46 141.08 88.85 141.52 C 89.50 139.18 90.24 136.87 90.88 134.53 C 88.97 133.19 87.09 131.82 85.26 130.38 C 87.49 129.01 90.18 129.48 92.66 129.39 Z" />
<path fill="#f5f5f5" opacity="1.00" d=" M 142.49 123.15 C 144.93 123.67 144.61 127.49 145.73 129.40 C 148.21 129.41 150.71 129.47 153.18 129.82 C 151.46 131.66 149.49 133.23 147.44 134.68 C 148.18 137.00 148.88 139.34 149.43 141.71 C 147.03 140.89 144.95 139.43 142.97 137.88 C 140.99 139.44 138.89 140.86 136.51 141.72 C 137.08 139.35 137.75 137.00 138.49 134.68 C 136.50 133.20 134.53 131.67 132.72 129.97 C 135.18 129.41 137.70 129.37 140.21 129.41 C 140.91 127.30 141.55 125.16 142.49 123.15 Z" />
<path fill="#f5f5f5" opacity="1.00" d=" M 190.13 122.64 C 192.12 124.33 192.41 127.08 193.28 129.41 C 195.76 129.50 198.46 128.99 200.69 130.36 C 198.87 131.80 196.99 133.17 195.08 134.49 C 195.77 136.92 196.42 139.36 196.86 141.86 C 194.62 140.82 192.58 139.44 190.67 137.90 C 188.62 139.34 186.52 140.74 184.29 141.90 C 184.57 139.46 185.24 137.10 186.18 134.84 C 184.32 133.28 182.36 131.85 180.44 130.37 C 182.62 128.92 185.35 129.54 187.81 129.41 C 188.57 127.15 189.31 124.88 190.13 122.64 Z" />
<path fill="#f5f5f5" opacity="1.00" d=" M 21.25 145.03 C 22.36 143.17 21.99 139.10 24.58 139.01 C 25.48 140.95 26.09 143.00 26.75 145.03 C 29.25 145.01 31.81 144.92 34.21 145.77 C 32.33 147.35 30.39 148.84 28.47 150.35 C 29.28 152.69 29.94 155.08 30.34 157.53 C 28.09 156.44 26.01 155.02 24.00 153.54 C 21.99 155.02 19.92 156.43 17.67 157.53 C 18.06 155.08 18.72 152.68 19.53 150.34 C 17.59 148.84 15.65 147.34 13.79 145.76 C 16.20 144.95 18.75 145.00 21.25 145.03 Z" />
<path fill="#f5f5f5" opacity="1.00" d=" M 71.13 138.34 C 73.21 139.94 73.45 142.72 74.32 145.01 C 76.69 145.05 79.06 145.11 81.43 145.22 C 80.28 147.50 78.06 148.83 76.05 150.26 C 76.79 152.63 77.50 155.00 78.02 157.43 C 75.67 156.50 73.60 155.05 71.62 153.51 C 69.63 155.03 67.59 156.61 65.10 157.18 C 65.70 154.85 66.42 152.55 67.14 150.26 C 65.08 148.85 62.92 147.44 61.60 145.24 C 64.02 145.11 66.43 145.06 68.85 145.03 C 69.60 142.80 70.35 140.56 71.13 138.34 Z" />
<path fill="#f5f5f5" opacity="1.00" d=" M 116.63 144.91 C 117.23 142.56 117.70 140.02 119.56 138.29 C 120.40 140.51 121.16 142.77 121.91 145.03 C 124.34 145.05 126.78 145.12 129.21 145.27 C 127.88 147.43 125.74 148.81 123.66 150.16 C 124.47 152.57 125.11 155.04 125.40 157.58 C 123.23 156.40 121.18 154.99 119.18 153.54 C 117.19 155.04 115.11 156.43 112.84 157.47 C 113.24 154.96 113.96 152.52 114.65 150.08 C 112.64 148.77 110.72 147.33 108.94 145.73 C 111.44 145.03 114.04 144.92 116.63 144.91 Z" />
<path fill="#f5f5f5" opacity="1.00" d=" M 166.36 138.29 C 168.25 140.01 168.68 142.59 169.36 144.93 C 171.92 144.91 174.51 145.02 177.00 145.72 C 175.13 147.32 173.18 148.82 171.22 150.30 C 171.99 152.65 172.70 155.02 173.13 157.46 C 170.84 156.45 168.75 155.05 166.76 153.53 C 164.76 154.97 162.73 156.39 160.57 157.58 C 160.85 155.04 161.46 152.55 162.28 150.13 C 160.20 148.80 158.01 147.46 156.77 145.24 C 159.19 145.11 161.61 145.06 164.03 145.03 C 164.77 142.77 165.53 140.52 166.36 138.29 Z" />
<path fill="#f5f5f5" opacity="1.00" d=" M 211.72 144.95 C 212.38 142.59 212.93 140.07 214.70 138.25 C 215.56 140.49 216.33 142.75 217.10 145.02 C 219.54 145.05 221.98 145.12 224.42 145.29 C 222.98 147.39 220.88 148.85 218.80 150.26 C 219.63 152.63 220.31 155.06 220.57 157.57 C 218.38 156.39 216.34 154.97 214.32 153.53 C 212.36 155.07 210.27 156.48 207.91 157.35 C 208.41 154.95 209.14 152.61 209.88 150.28 C 207.84 148.83 205.66 147.43 204.37 145.22 C 206.81 145.08 209.27 145.06 211.72 144.95 Z" />
<path fill="#f5f5f5" opacity="1.00" d=" M 47.43 153.30 C 49.24 155.08 49.76 157.60 50.38 159.97 C 52.94 159.94 55.52 160.07 58.02 160.73 C 56.17 162.35 54.22 163.85 52.25 165.32 C 53.03 167.67 53.72 170.05 54.15 172.50 C 51.86 171.48 49.78 170.07 47.78 168.57 C 45.78 170.02 43.75 171.43 41.58 172.62 C 41.84 170.10 42.49 167.66 43.31 165.27 C 41.26 163.86 39.11 162.46 37.78 160.30 C 40.20 160.15 42.63 160.09 45.06 160.06 C 45.81 157.79 46.57 155.53 47.43 153.30 Z" />
<path fill="#f5f5f5" opacity="1.00" d=" M 92.68 160.02 C 93.47 157.70 93.84 155.02 95.81 153.32 C 96.62 155.56 97.36 157.82 98.12 160.07 C 100.53 160.09 102.93 160.13 105.33 160.26 C 104.09 162.50 101.87 163.85 99.83 165.29 C 100.67 167.66 101.38 170.09 101.52 172.61 C 99.34 171.35 97.27 169.92 95.18 168.52 C 93.31 170.13 91.28 171.61 88.92 172.43 C 89.44 170.02 90.16 167.67 90.90 165.32 C 88.93 163.84 86.97 162.34 85.09 160.74 C 87.56 160.06 90.13 159.99 92.68 160.02 Z" />
<path fill="#f5f5f5" opacity="1.00" d=" M 142.39 154.03 C 144.97 154.09 144.61 158.21 145.72 160.06 C 148.23 160.04 150.77 160.02 153.19 160.74 C 151.34 162.35 149.39 163.86 147.45 165.36 C 148.25 167.71 148.89 170.12 149.29 172.57 C 147.05 171.45 144.98 170.05 142.97 168.57 C 140.95 170.04 138.89 171.44 136.67 172.59 C 137.02 170.13 137.67 167.72 138.50 165.38 C 136.55 163.86 134.59 162.34 132.72 160.72 C 135.16 160.03 137.70 160.03 140.22 160.05 C 140.88 158.02 141.48 155.96 142.39 154.03 Z" />
<path fill="#f5f5f5" opacity="1.00" d=" M 190.18 153.26 C 192.00 155.09 192.50 157.70 193.28 160.06 C 195.65 160.10 198.03 160.13 200.41 160.24 C 199.29 162.55 197.02 163.86 195.01 165.30 C 195.73 167.63 196.45 169.96 197.05 172.33 C 194.59 171.67 192.58 170.07 190.61 168.55 C 188.59 169.95 186.59 171.36 184.51 172.66 C 184.32 170.09 185.33 167.68 186.12 165.30 C 184.08 163.87 181.86 162.50 180.61 160.26 C 183.01 160.14 185.40 160.09 187.80 160.06 C 188.57 157.78 189.33 155.50 190.18 153.26 Z" />
<path fill="#f5f5f5" opacity="1.00" d=" M 238.35 165.70 C 329.56 165.68 420.78 165.69 512.00 165.69 L 512.00 191.50 C 420.78 191.51 329.56 191.48 238.35 191.51 C 238.34 182.91 238.34 174.30 238.35 165.70 Z" />
<path fill="#f5f5f5" opacity="1.00" d=" M 21.11 175.85 C 21.94 173.42 22.83 171.01 24.01 168.73 C 25.16 170.92 25.97 173.26 26.69 175.63 C 29.20 175.70 31.70 175.77 34.19 176.06 C 32.49 177.91 30.54 179.51 28.47 180.94 C 29.31 183.31 29.96 185.74 30.24 188.24 C 28.06 187.05 26.01 185.64 24.00 184.20 C 21.99 185.63 19.96 187.04 17.81 188.25 C 18.03 185.74 18.67 183.30 19.53 180.94 C 17.61 179.49 15.68 178.04 13.82 176.53 C 16.13 175.54 18.65 175.63 21.11 175.85 Z" />
<path fill="#f5f5f5" opacity="1.00" d=" M 68.83 175.69 C 69.59 173.30 70.26 170.81 71.90 168.84 C 72.78 171.10 73.58 173.39 74.35 175.69 C 76.80 175.71 79.25 175.79 81.70 175.96 C 80.19 178.01 78.13 179.52 76.05 180.93 C 76.80 183.28 77.52 185.66 77.98 188.09 C 75.66 187.13 73.58 185.72 71.63 184.16 C 69.64 185.70 67.52 187.08 65.18 188.04 C 65.71 185.63 66.38 183.26 67.13 180.92 C 65.04 179.51 62.98 177.99 61.46 175.95 C 63.91 175.78 66.37 175.72 68.83 175.69 Z" />
<path fill="#f5f5f5" opacity="1.00" d=" M 116.42 175.69 C 117.17 173.31 118.04 170.97 119.11 168.71 C 120.31 170.92 121.18 173.29 121.93 175.68 C 124.40 175.71 126.87 175.79 129.33 175.99 C 127.72 177.95 125.74 179.52 123.65 180.93 C 124.46 183.31 125.24 185.73 125.26 188.27 C 123.17 187.01 121.17 185.60 119.18 184.19 C 117.18 185.63 115.16 187.04 113.02 188.26 C 113.18 185.74 113.86 183.30 114.69 180.93 C 112.79 179.51 110.89 178.10 109.02 176.63 C 111.29 175.37 113.93 175.76 116.42 175.69 Z" />
<path fill="#f5f5f5" opacity="1.00" d=" M 164.01 175.68 C 164.74 173.28 165.59 170.90 166.89 168.73 C 167.91 170.99 168.76 173.32 169.51 175.69 C 171.95 175.71 174.39 175.78 176.82 175.93 C 175.37 178.03 173.28 179.49 171.22 180.93 C 171.99 183.31 172.77 185.70 173.05 188.19 C 170.82 187.09 168.75 185.69 166.77 184.19 C 164.77 185.59 162.77 187.00 160.69 188.27 C 160.69 185.73 161.48 183.30 162.29 180.93 C 160.21 179.52 158.18 177.99 156.64 175.97 C 159.09 175.78 161.55 175.72 164.01 175.68 Z" />
<path fill="#f5f5f5" opacity="1.00" d=" M 211.58 175.68 C 212.36 173.33 213.21 171.01 214.19 168.74 C 215.49 170.90 216.39 173.27 217.11 175.69 C 219.56 175.72 222.02 175.78 224.48 175.96 C 222.95 178.00 220.88 179.51 218.80 180.93 C 219.55 183.30 220.59 185.70 220.33 188.26 C 218.28 186.96 216.30 185.56 214.32 184.17 C 212.35 185.71 210.26 187.10 207.98 188.15 C 208.37 185.68 209.10 183.30 209.87 180.93 C 207.80 179.52 205.76 177.99 204.24 175.97 C 206.68 175.79 209.13 175.71 211.58 175.68 Z" />
<path fill="#f5f5f5" opacity="1.00" d=" M 45.04 190.72 C 45.78 188.32 46.64 185.95 47.88 183.75 C 48.93 186.01 49.79 188.34 50.55 190.72 C 53.02 190.81 55.68 190.35 57.92 191.68 C 56.05 193.13 54.15 194.54 52.25 195.96 C 53.07 198.33 53.77 200.75 54.01 203.26 C 51.83 202.10 49.79 200.69 47.80 199.22 C 45.79 200.65 43.77 202.06 41.64 203.31 C 41.80 200.78 42.50 198.33 43.32 195.95 C 41.24 194.55 39.19 193.02 37.68 190.98 C 40.13 190.81 42.58 190.75 45.04 190.72 Z" />
<path fill="#f5f5f5" opacity="1.00" d=" M 92.61 190.72 C 93.39 188.37 94.24 186.06 95.20 183.79 C 96.53 185.94 97.43 188.31 98.14 190.72 C 100.59 190.75 103.05 190.81 105.50 190.98 C 103.99 193.02 101.93 194.55 99.83 195.96 C 100.64 198.33 101.51 200.75 101.42 203.31 C 99.36 202.03 97.38 200.63 95.42 199.20 C 93.41 200.72 91.31 202.11 89.04 203.19 C 89.39 200.72 90.13 198.33 90.92 195.97 C 88.83 194.55 86.77 193.04 85.29 190.96 C 87.72 190.81 90.17 190.75 92.61 190.72 Z" />
<path fill="#f5f5f5" opacity="1.00" d=" M 140.19 190.71 C 140.98 188.34 141.81 185.98 142.98 183.76 C 144.11 185.94 144.96 188.25 145.58 190.64 C 148.09 190.72 150.61 190.80 153.11 191.12 C 151.44 192.98 149.49 194.55 147.44 195.97 C 148.27 198.34 148.93 200.76 149.21 203.26 C 147.02 202.09 144.98 200.68 142.97 199.23 C 140.96 200.68 138.91 202.09 136.73 203.27 C 136.98 200.76 137.67 198.34 138.49 195.96 C 136.42 194.53 134.45 192.94 132.77 191.05 C 135.23 190.81 137.71 190.75 140.19 190.71 Z" />
<path fill="#f5f5f5" opacity="1.00" d=" M 187.80 190.72 C 188.60 188.36 189.10 185.75 190.92 183.92 C 191.75 186.17 192.53 188.44 193.28 190.72 C 195.74 190.75 198.20 190.81 200.66 190.96 C 199.18 193.05 197.10 194.54 195.02 195.97 C 195.78 198.32 196.49 200.70 196.95 203.14 C 194.62 202.17 192.54 200.74 190.58 199.18 C 188.59 200.74 186.51 202.22 184.10 203.04 C 184.63 200.64 185.36 198.29 186.10 195.96 C 184.01 194.55 181.95 193.03 180.44 190.98 C 182.89 190.81 185.35 190.75 187.80 190.72 Z" />
<path fill="#f5f5f5" opacity="1.00" d=" M 23.50 200.12 C 25.97 200.53 25.63 204.43 26.75 206.34 C 29.26 206.33 31.77 206.40 34.25 206.81 C 32.47 208.58 30.50 210.15 28.47 211.62 C 29.20 213.92 29.88 216.24 30.49 218.58 C 28.03 217.90 25.99 216.34 24.00 214.82 C 22.01 216.35 19.97 217.89 17.51 218.58 C 18.12 216.24 18.80 213.92 19.53 211.62 C 17.49 210.15 15.52 208.59 13.76 206.79 C 16.24 206.40 18.74 206.34 21.25 206.34 C 21.94 204.24 22.58 202.12 23.50 200.12 Z" />
<path fill="#f5f5f5" opacity="1.00" d=" M 68.85 206.35 C 69.67 204.01 70.09 201.36 71.96 199.57 C 72.80 201.80 73.57 204.07 74.34 206.34 C 76.49 206.84 80.17 205.21 81.26 207.57 C 79.66 209.04 77.86 210.24 76.08 211.48 C 76.86 213.88 77.51 216.33 77.75 218.86 C 75.60 217.66 73.56 216.27 71.56 214.85 C 69.59 216.26 67.60 217.65 65.54 218.93 C 65.43 216.33 66.37 213.88 67.09 211.42 C 65.64 209.89 61.57 208.92 62.31 206.54 C 64.48 206.28 66.67 206.36 68.85 206.35 Z" />
<path fill="#f5f5f5" opacity="1.00" d=" M 116.42 206.34 C 117.24 204.00 117.67 201.35 119.58 199.61 C 120.41 201.84 121.17 204.10 121.91 206.36 C 124.27 206.38 126.63 206.40 128.99 206.48 C 128.04 208.90 125.58 210.08 123.66 211.61 C 124.42 213.96 125.06 216.35 125.56 218.78 C 123.26 217.75 121.16 216.35 119.16 214.83 C 117.19 216.38 115.13 217.87 112.70 218.60 C 113.27 216.25 113.97 213.93 114.69 211.62 C 112.66 210.15 110.69 208.58 108.91 206.81 C 111.39 206.40 113.91 206.34 116.42 206.34 Z" />
<path fill="#f5f5f5" opacity="1.00" d=" M 166.37 199.59 C 168.22 201.39 168.73 203.99 169.52 206.34 C 172.02 206.34 174.54 206.40 177.02 206.81 C 175.25 208.57 173.28 210.12 171.24 211.55 C 171.95 213.89 172.65 216.24 173.22 218.63 C 170.81 217.84 168.74 216.37 166.77 214.83 C 164.79 216.38 162.69 217.78 160.33 218.68 C 160.88 216.26 161.56 213.89 162.26 211.51 C 160.33 210.04 157.85 208.91 156.94 206.48 C 159.30 206.40 161.66 206.38 164.02 206.36 C 164.78 204.09 165.53 201.83 166.37 199.59 Z" />
<path fill="#f5f5f5" opacity="1.00" d=" M 211.76 206.30 C 212.50 203.99 212.71 201.19 214.82 199.64 C 215.59 201.87 216.33 204.12 217.09 206.36 C 219.29 206.36 221.49 206.29 223.69 206.54 C 224.05 209.02 220.18 210.01 218.73 211.79 C 219.62 214.05 220.30 216.38 220.72 218.78 C 218.43 217.79 216.39 216.38 214.48 214.81 C 212.41 216.31 210.34 217.87 207.84 218.56 C 208.44 216.20 209.17 213.88 209.87 211.55 C 207.98 210.17 206.10 208.77 204.26 207.33 C 206.50 205.91 209.24 206.40 211.76 206.30 Z" />
<path fill="#f5f5f5" opacity="1.00" d=" M 47.39 214.63 C 49.29 216.38 49.75 219.01 50.55 221.35 C 53.05 221.36 55.55 221.42 58.03 221.79 C 56.28 223.60 54.31 225.16 52.25 226.60 C 52.98 228.93 53.69 231.27 54.26 233.65 C 51.85 232.91 49.82 231.44 47.92 229.86 C 45.87 231.35 43.73 232.72 41.43 233.81 C 41.90 231.37 42.54 228.97 43.31 226.61 C 41.37 225.22 39.37 223.84 37.83 222.00 C 40.13 221.08 42.65 221.43 45.05 221.35 C 45.81 219.10 46.56 216.85 47.39 214.63 Z" />
<path fill="#f5f5f5" opacity="1.00" d=" M 92.65 221.34 C 93.39 218.97 93.97 216.43 95.74 214.59 C 96.59 216.82 97.36 219.09 98.13 221.36 C 100.24 221.89 104.03 220.21 105.03 222.55 C 103.39 224.08 101.55 225.36 99.78 226.73 C 100.66 229.03 101.33 231.40 101.68 233.85 C 99.46 232.81 97.43 231.44 95.59 229.83 C 93.47 231.27 91.42 232.95 88.86 233.53 C 89.49 231.18 90.22 228.86 90.89 226.52 C 89.00 225.17 87.12 223.79 85.28 222.37 C 87.46 220.91 90.18 221.45 92.65 221.34 Z" />
<path fill="#f5f5f5" opacity="1.00" d=" M 142.46 215.17 C 144.92 215.50 144.59 219.48 145.73 221.34 C 148.23 221.35 150.73 221.42 153.20 221.86 C 151.42 223.61 149.46 225.16 147.44 226.62 C 148.16 228.92 148.86 231.24 149.45 233.59 C 146.99 232.93 144.96 231.37 142.97 229.85 C 140.98 231.37 138.95 232.93 136.48 233.58 C 137.09 231.24 137.77 228.93 138.50 226.63 C 136.47 225.16 134.50 223.61 132.73 221.84 C 135.20 221.43 137.71 221.35 140.21 221.33 C 140.90 219.26 141.54 217.15 142.46 215.17 Z" />
<path fill="#f5f5f5" opacity="1.00" d=" M 187.81 221.35 C 188.61 218.99 189.09 216.39 190.90 214.55 C 191.75 216.79 192.51 219.07 193.28 221.34 C 195.74 221.49 198.50 220.87 200.66 222.38 C 198.82 223.79 196.94 225.15 195.05 226.49 C 195.82 228.90 196.47 231.35 196.75 233.87 C 194.52 232.67 192.44 231.25 190.35 229.84 C 188.50 231.33 186.57 232.72 184.55 233.95 C 184.35 231.35 185.34 228.91 186.08 226.47 C 184.28 225.24 182.45 224.03 180.84 222.55 C 182.02 220.24 185.65 221.87 187.81 221.35 Z" />
<path fill="#f5f5f5" opacity="1.00" d=" M 238.35 217.28 C 329.56 217.29 420.78 217.28 512.00 217.28 L 512.00 243.09 C 420.78 243.09 329.56 243.09 238.34 243.09 C 238.35 234.48 238.34 225.88 238.35 217.28 Z" />
<path fill="#f5f5f5" opacity="1.00" d=" M 21.23 236.97 C 21.99 234.59 22.83 232.24 24.00 230.04 C 25.16 232.25 26.01 234.60 26.77 236.97 C 29.26 236.95 31.82 236.88 34.20 237.74 C 32.31 239.33 30.34 240.82 28.43 242.38 C 29.30 244.68 29.97 247.06 30.32 249.50 C 28.08 248.39 26.01 246.99 24.00 245.51 C 21.99 246.99 19.91 248.41 17.66 249.50 C 18.10 247.15 18.77 244.86 19.31 242.54 C 17.98 240.51 15.54 239.39 13.77 237.75 C 16.17 236.89 18.73 236.95 21.23 236.97 Z" />
<path fill="#f5f5f5" opacity="1.00" d=" M 71.13 230.29 C 73.16 231.91 73.47 234.64 74.30 236.94 C 76.75 237.00 79.19 237.08 81.63 237.26 C 80.18 239.33 78.12 240.82 76.05 242.22 C 76.77 244.54 77.48 246.87 78.04 249.24 C 75.62 248.52 73.58 247.02 71.63 245.47 C 69.63 246.99 67.59 248.56 65.11 249.20 C 65.69 246.84 66.41 244.52 67.14 242.21 C 65.08 240.81 62.93 239.39 61.60 237.22 C 64.01 237.07 66.43 237.01 68.86 236.97 C 69.61 234.74 70.35 232.50 71.13 230.29 Z" />
<path fill="#f5f5f5" opacity="1.00" d=" M 116.52 236.92 C 117.51 234.89 117.22 231.56 119.65 230.63 C 120.57 232.68 121.21 234.83 121.91 236.97 C 124.34 237.00 126.78 237.08 129.21 237.24 C 127.83 239.37 125.71 240.80 123.65 242.20 C 124.45 244.59 125.13 247.02 125.44 249.53 C 123.23 248.38 121.18 246.97 119.18 245.50 C 117.19 247.00 115.12 248.40 112.86 249.46 C 113.20 246.98 113.92 244.58 114.68 242.21 C 112.74 240.78 110.81 239.32 108.96 237.78 C 111.38 236.87 113.98 236.93 116.52 236.92 Z" />
<path fill="#f5f5f5" opacity="1.00" d=" M 166.35 230.26 C 168.27 231.97 168.70 234.59 169.41 236.93 C 171.82 236.99 174.23 237.06 176.65 237.13 C 175.55 239.48 173.19 240.73 171.21 242.22 C 171.99 244.58 172.70 246.97 173.12 249.43 C 170.83 248.42 168.74 247.01 166.76 245.50 C 164.76 246.98 162.71 248.39 160.49 249.51 C 160.84 247.02 161.49 244.59 162.28 242.20 C 160.22 240.80 158.12 239.35 156.70 237.26 C 159.14 237.08 161.58 237.00 164.03 236.96 C 164.78 234.72 165.52 232.47 166.35 230.26 Z" />
<path fill="#f5f5f5" opacity="1.00" d=" M 211.68 236.91 C 212.39 234.57 212.92 232.03 214.70 230.22 C 215.56 232.45 216.33 234.70 217.10 236.96 C 219.53 237.01 221.97 237.08 224.41 237.25 C 223.00 239.36 220.88 240.79 218.81 242.20 C 219.60 244.58 220.26 247.00 220.68 249.48 C 218.41 248.40 216.34 246.99 214.33 245.50 C 212.34 247.03 210.27 248.49 207.89 249.36 C 208.41 246.95 209.13 244.59 209.88 242.24 C 207.90 240.77 205.95 239.29 204.10 237.68 C 206.57 236.99 209.13 236.90 211.68 236.91 Z" />
<path fill="#f5f5f5" opacity="1.00" d=" M 0.00 260.70 C 0.35 265.72 5.05 269.39 9.98 268.96 C 83.46 268.95 156.93 268.97 230.41 268.95 C 324.27 268.86 418.14 268.94 512.00 268.91 L 512.00 294.72 C 341.33 294.72 170.67 294.72 0.00 294.72 L 0.00 260.70 Z" />
<path fill="#f5f5f5" opacity="1.00" d=" M 0.00 320.50 C 119.65 320.50 239.30 320.50 358.95 320.50 C 409.97 320.60 460.99 320.30 512.00 320.65 L 512.00 346.31 C 341.33 346.31 170.67 346.31 0.00 346.31 L 0.00 320.50 Z" />
<path fill="#f5f5f5" opacity="1.00" d=" M 0.00 372.12 C 170.67 372.12 341.33 372.13 512.00 372.12 L 512.00 385.57 C 511.71 389.82 511.07 394.05 509.84 398.14 C 485.88 397.60 461.90 398.06 437.93 397.91 C 299.28 397.91 160.63 397.90 21.98 397.91 C 15.37 397.96 8.76 397.71 2.16 398.14 C 0.93 394.05 0.29 389.82 0.00 385.57 L 0.00 372.12 Z" />
</g>
</svg>
