<svg width="16" height="16" viewBox="0 0 16 16" fill="none" xmlns="http://www.w3.org/2000/svg">
<path d="M8.06667 8.78334C8.22223 8.78334 8.35278 8.73056 8.45834 8.625C8.56389 8.51945 8.61667 8.38334 8.61667 8.21667V5.05C8.61667 4.90556 8.56112 4.77778 8.45 4.66667C8.33889 4.55556 8.20556 4.5 8.05 4.5C7.88334 4.5 7.74723 4.55556 7.64167 4.66667C7.53611 4.77778 7.48334 4.91112 7.48334 5.06667V8.23334C7.48334 8.38889 7.53889 8.51945 7.65 8.625C7.76112 8.73056 7.9 8.78334 8.06667 8.78334ZM8 11.4333C8.17778 11.4333 8.32778 11.3722 8.45 11.25C8.57223 11.1278 8.63334 10.9778 8.63334 10.8C8.63334 10.6222 8.575 10.4694 8.45834 10.3417C8.34167 10.2139 8.18889 10.15 8 10.15C7.82223 10.15 7.67223 10.2139 7.55 10.3417C7.42778 10.4694 7.36667 10.6222 7.36667 10.8C7.36667 10.9778 7.425 11.1278 7.54167 11.25C7.65834 11.3722 7.81112 11.4333 8 11.4333ZM8 14.7667C7.04445 14.7667 6.15278 14.5944 5.325 14.25C4.49723 13.9056 3.78056 13.4306 3.175 12.825C2.56945 12.2194 2.09445 11.5028 1.75 10.675C1.40556 9.84723 1.23334 8.95556 1.23334 8C1.23334 7.05556 1.40556 6.16945 1.75 5.34167C2.09445 4.51389 2.56945 3.79723 3.175 3.19167C3.78056 2.58612 4.49723 2.10834 5.325 1.75834C6.15278 1.40834 7.04445 1.23334 8 1.23334C8.94445 1.23334 9.83056 1.40834 10.6583 1.75834C11.4861 2.10834 12.2028 2.58612 12.8083 3.19167C13.4139 3.79723 13.8917 4.51112 14.2417 5.33334C14.5917 6.15556 14.7667 7.04445 14.7667 8C14.7667 8.95556 14.5917 9.84723 14.2417 10.675C13.8917 11.5028 13.4139 12.2194 12.8083 12.825C12.2028 13.4306 11.4861 13.9056 10.6583 14.25C9.83056 14.5944 8.94445 14.7667 8 14.7667ZM8 13.6333C9.54445 13.6333 10.8694 13.0833 11.975 11.9833C13.0806 10.8833 13.6333 9.55556 13.6333 8C13.6333 6.45556 13.0806 5.13056 11.975 4.025C10.8694 2.91945 9.54445 2.36667 8 2.36667C6.45556 2.36667 5.13056 2.91945 4.025 4.025C2.91945 5.13056 2.36667 6.45556 2.36667 8C2.36667 9.55556 2.91945 10.8833 4.025 11.9833C5.13056 13.0833 6.45556 13.6333 8 13.6333Z" fill="white"/>
</svg>
